<svg xmlns="http://www.w3.org/2000/svg" version="1.1" xmlns:xlink="http://www.w3.org/1999/xlink" xmlns:svgjs="http://svgjs.dev/svgjs" width="1440" height="560" preserveAspectRatio="none" viewBox="0 0 1440 560"><g mask="url(&quot;#SvgjsMask1002&quot;)" fill="none"><rect width="1440" height="560" x="0" y="0" fill="#0e2a47"></rect><path d="M740.97 380.87L740.97 384.6L769.17 384.6L769.17 380.87zM762.57 382.74 a6.6 6.6 0 1 0 13.2 0 a6.6 6.6 0 1 0 -13.2 0zM736.26 408.25L734.84 411.7L765.31 424.32L766.74 420.88zM759.43 422.6 a6.6 6.6 0 1 0 13.2 0 a6.6 6.6 0 1 0 -13.2 0zM721.44 431.74L718.8 434.38L741.75 457.33L744.39 454.69zM736.47 456.01 a6.6 6.6 0 1 0 13.2 0 a6.6 6.6 0 1 0 -13.2 0zM698.75 447.78L695.31 449.2L706.08 475.2L709.52 473.77zM701.2 474.49 a6.6 6.6 0 1 0 13.2 0 a6.6 6.6 0 1 0 -13.2 0zM671.66 453.91L667.93 453.91L667.93 481.32L671.66 481.32zM663.2 481.32 a6.6 6.6 0 1 0 13.2 0 a6.6 6.6 0 1 0 -13.2 0zM644.28 449.2L640.84 447.78L629 476.35L632.45 477.78zM624.13 477.07 a6.6 6.6 0 1 0 13.2 0 a6.6 6.6 0 1 0 -13.2 0zM620.79 434.38L618.16 431.74L610.42 439.48L613.06 442.12zM605.14 440.8 a6.6 6.6 0 1 0 13.2 0 a6.6 6.6 0 1 0 -13.2 0zM604.76 411.7L603.33 408.25L574.2 420.32L575.63 423.76zM568.32 422.04 a6.6 6.6 0 1 0 13.2 0 a6.6 6.6 0 1 0 -13.2 0zM598.63 384.6L598.63 380.87L564.73 380.87L564.73 384.6zM558.13 382.74 a6.6 6.6 0 1 0 13.2 0 a6.6 6.6 0 1 0 -13.2 0zM603.33 357.22L604.76 353.78L580.23 343.62L578.8 347.06zM572.92 345.34 a6.6 6.6 0 1 0 13.2 0 a6.6 6.6 0 1 0 -13.2 0zM618.16 333.73L620.79 331.1L611.73 322.03L609.09 324.67zM603.81 323.35 a6.6 6.6 0 1 0 13.2 0 a6.6 6.6 0 1 0 -13.2 0zM640.84 317.7L644.28 316.27L639.6 304.97L636.16 306.4zM631.28 305.69 a6.6 6.6 0 1 0 13.2 0 a6.6 6.6 0 1 0 -13.2 0zM667.93 311.57L671.66 311.57L671.66 298.27L667.93 298.27zM663.2 298.27 a6.6 6.6 0 1 0 13.2 0 a6.6 6.6 0 1 0 -13.2 0zM695.31 316.27L698.75 317.7L703.45 306.36L700.01 304.94zM695.13 305.65 a6.6 6.6 0 1 0 13.2 0 a6.6 6.6 0 1 0 -13.2 0zM718.8 331.1L721.44 333.73L729.08 326.09L726.45 323.45zM721.17 324.77 a6.6 6.6 0 1 0 13.2 0 a6.6 6.6 0 1 0 -13.2 0zM734.84 353.78L736.26 357.22L756 349.05L754.57 345.61zM748.68 347.33 a6.6 6.6 0 1 0 13.2 0 a6.6 6.6 0 1 0 -13.2 0zM598.61 382.74 a71.19 71.19 0 1 0 142.38 0 a71.19 71.19 0 1 0 -142.38 0z" fill="rgba(213, 9, 9, 1)"></path><path d="M664.6 453.74 A70.1936 70.1936 0 0 1 610.82 342.86M610.82 342.86 A142.3872 142.3872 0 0 0 664.6 453.74" fill="#aa0707" fill-rule="nonzero"></path><path d="M677.54 420.85 a14.24 14.24 0 1 0 28.48 0 a14.24 14.24 0 1 0 -28.48 0zM663.01 356.46 a14.24 14.24 0 1 0 28.48 0 a14.24 14.24 0 1 0 -28.48 0zM708.4 395.85 a2.85 2.85 0 1 0 5.7 0 a2.85 2.85 0 1 0 -5.7 0zM643.33 380.18 a7.12 7.12 0 1 0 14.24 0 a7.12 7.12 0 1 0 -14.24 0zM730.82 386.93 a4.98 4.98 0 1 0 9.96 0 a4.98 4.98 0 1 0 -9.96 0zM617.98 338.56 a9.97 9.97 0 1 0 19.94 0 a9.97 9.97 0 1 0 -19.94 0zM673.34 391.06 a4.27 4.27 0 1 0 8.54 0 a4.27 4.27 0 1 0 -8.54 0zM649.32 319.69 a6.41 6.41 0 1 0 12.82 0 a6.41 6.41 0 1 0 -12.82 0zM614.7 425.4 a4.27 4.27 0 1 0 8.54 0 a4.27 4.27 0 1 0 -8.54 0zM720.51 419.39 a4.27 4.27 0 1 0 8.54 0 a4.27 4.27 0 1 0 -8.54 0z" fill="#aa0707" fill-rule="nonzero"></path><path d="M99.91 487.72L99.91 489.58L112.1 489.58L112.1 487.72zM108.8 488.65 a3.3 3.3 0 1 0 6.6 0 a3.3 3.3 0 1 0 -6.6 0zM97.55 501.41L96.84 503.13L113.06 509.85L113.78 508.13zM110.12 508.99 a3.3 3.3 0 1 0 6.6 0 a3.3 3.3 0 1 0 -6.6 0zM90.14 513.15L88.83 514.47L101.16 526.81L102.48 525.49zM98.52 526.15 a3.3 3.3 0 1 0 6.6 0 a3.3 3.3 0 1 0 -6.6 0zM78.8 521.17L77.08 521.88L82.35 534.61L84.07 533.9zM79.91 534.26 a3.3 3.3 0 1 0 6.6 0 a3.3 3.3 0 1 0 -6.6 0zM65.25 524.23L63.39 524.23L63.39 534.75L65.25 534.75zM61.02 534.75 a3.3 3.3 0 1 0 6.6 0 a3.3 3.3 0 1 0 -6.6 0zM51.57 521.88L49.84 521.17L45.87 530.77L47.59 531.48zM43.43 531.12 a3.3 3.3 0 1 0 6.6 0 a3.3 3.3 0 1 0 -6.6 0zM39.82 514.47L38.5 513.15L34.76 516.89L36.08 518.21zM32.12 517.55 a3.3 3.3 0 1 0 6.6 0 a3.3 3.3 0 1 0 -6.6 0zM31.8 503.13L31.09 501.41L20.34 505.86L21.05 507.58zM17.39 506.72 a3.3 3.3 0 1 0 6.6 0 a3.3 3.3 0 1 0 -6.6 0zM28.74 489.58L28.74 487.72L19.4 487.72L19.4 489.58zM16.1 488.65 a3.3 3.3 0 1 0 6.6 0 a3.3 3.3 0 1 0 -6.6 0zM31.09 475.89L31.8 474.17L18.91 468.83L18.19 470.55zM15.25 469.69 a3.3 3.3 0 1 0 6.6 0 a3.3 3.3 0 1 0 -6.6 0zM38.5 464.15L39.82 462.83L34.56 457.57L33.24 458.89zM30.6 458.23 a3.3 3.3 0 1 0 6.6 0 a3.3 3.3 0 1 0 -6.6 0zM49.84 456.13L51.57 455.42L49.31 449.98L47.59 450.7zM45.15 450.34 a3.3 3.3 0 1 0 6.6 0 a3.3 3.3 0 1 0 -6.6 0zM63.39 453.06L65.25 453.06L65.25 445.62L63.39 445.62zM61.02 445.62 a3.3 3.3 0 1 0 6.6 0 a3.3 3.3 0 1 0 -6.6 0zM77.08 455.42L78.8 456.13L84.78 441.7L83.06 440.99zM80.62 441.34 a3.3 3.3 0 1 0 6.6 0 a3.3 3.3 0 1 0 -6.6 0zM88.83 462.83L90.14 464.15L96.61 457.68L95.29 456.37zM92.65 457.02 a3.3 3.3 0 1 0 6.6 0 a3.3 3.3 0 1 0 -6.6 0zM96.84 474.17L97.55 475.89L113.39 469.33L112.68 467.61zM109.73 468.47 a3.3 3.3 0 1 0 6.6 0 a3.3 3.3 0 1 0 -6.6 0zM28.72 488.65 a35.6 35.6 0 1 0 71.2 0 a35.6 35.6 0 1 0 -71.2 0z" fill="#488fdb"></path><path d="M43.45 517.49 A34.5968 34.5968 0 0 1 49.71 456.19M49.71 456.19 A71.1936 71.1936 0 0 0 43.45 517.49" fill="#2672c3" fill-rule="nonzero"></path><path d="M38.87 491.63 a7.12 7.12 0 1 0 14.24 0 a7.12 7.12 0 1 0 -14.24 0zM70.28 511.24 a7.12 7.12 0 1 0 14.24 0 a7.12 7.12 0 1 0 -14.24 0zM49.31 459.33 a3.92 3.92 0 1 0 7.84 0 a3.92 3.92 0 1 0 -7.84 0zM88.8 492.91 a5.34 5.34 0 1 0 10.68 0 a5.34 5.34 0 1 0 -10.68 0zM37.44 507.9 a2.85 2.85 0 1 0 5.7 0 a2.85 2.85 0 1 0 -5.7 0zM64.99 487.21 a7.12 7.12 0 1 0 14.24 0 a7.12 7.12 0 1 0 -14.24 0zM67.26 455.81 a2.14 2.14 0 1 0 4.28 0 a2.14 2.14 0 1 0 -4.28 0zM91.43 473.96 a2.49 2.49 0 1 0 4.98 0 a2.49 2.49 0 1 0 -4.98 0zM62.73 470.68 a3.2 3.2 0 1 0 6.4 0 a3.2 3.2 0 1 0 -6.4 0zM49.74 512.11 a1.42 1.42 0 1 0 2.84 0 a1.42 1.42 0 1 0 -2.84 0z" fill="#2672c3" fill-rule="nonzero"></path><path d="M1175.79 235.81L1175.79 239.54L1207.6 239.54L1207.6 235.81zM1201 237.68 a6.6 6.6 0 1 0 13.2 0 a6.6 6.6 0 1 0 -13.2 0zM1171.09 263.19L1169.66 266.64L1201.88 279.98L1203.31 276.54zM1195.99 278.26 a6.6 6.6 0 1 0 13.2 0 a6.6 6.6 0 1 0 -13.2 0zM1156.27 286.68L1153.63 289.32L1161.03 296.72L1163.67 294.09zM1155.75 295.41 a6.6 6.6 0 1 0 13.2 0 a6.6 6.6 0 1 0 -13.2 0zM1133.58 302.72L1130.14 304.14L1137.81 322.68L1141.26 321.25zM1132.94 321.96 a6.6 6.6 0 1 0 13.2 0 a6.6 6.6 0 1 0 -13.2 0zM1106.49 308.85L1102.76 308.85L1102.76 321.65L1106.49 321.65zM1098.02 321.65 a6.6 6.6 0 1 0 13.2 0 a6.6 6.6 0 1 0 -13.2 0zM1079.11 304.14L1075.67 302.72L1066.91 323.85L1070.36 325.28zM1062.03 324.57 a6.6 6.6 0 1 0 13.2 0 a6.6 6.6 0 1 0 -13.2 0zM1055.62 289.32L1052.98 286.68L1029.42 310.25L1032.06 312.88zM1024.14 311.56 a6.6 6.6 0 1 0 13.2 0 a6.6 6.6 0 1 0 -13.2 0zM1039.59 266.64L1038.16 263.19L1017.33 271.82L1018.75 275.26zM1011.44 273.54 a6.6 6.6 0 1 0 13.2 0 a6.6 6.6 0 1 0 -13.2 0zM1033.46 239.54L1033.46 235.81L999.79 235.81L999.79 239.54zM993.19 237.68 a6.6 6.6 0 1 0 13.2 0 a6.6 6.6 0 1 0 -13.2 0zM1038.16 212.16L1039.59 208.72L1028.09 203.96L1026.67 207.4zM1020.78 205.68 a6.6 6.6 0 1 0 13.2 0 a6.6 6.6 0 1 0 -13.2 0zM1052.98 188.67L1055.62 186.04L1047.01 177.42L1044.37 180.06zM1039.09 178.74 a6.6 6.6 0 1 0 13.2 0 a6.6 6.6 0 1 0 -13.2 0zM1075.67 172.64L1079.11 171.21L1065.79 139.05L1062.35 140.48zM1057.47 139.77 a6.6 6.6 0 1 0 13.2 0 a6.6 6.6 0 1 0 -13.2 0zM1102.76 166.51L1106.49 166.51L1106.49 150.02L1102.76 150.02zM1098.02 150.02 a6.6 6.6 0 1 0 13.2 0 a6.6 6.6 0 1 0 -13.2 0zM1130.14 171.21L1133.58 172.64L1144.4 146.52L1140.96 145.09zM1136.08 145.81 a6.6 6.6 0 1 0 13.2 0 a6.6 6.6 0 1 0 -13.2 0zM1153.63 186.04L1156.27 188.67L1173.36 171.58L1170.72 168.95zM1165.44 170.26 a6.6 6.6 0 1 0 13.2 0 a6.6 6.6 0 1 0 -13.2 0zM1169.66 208.72L1171.09 212.16L1187.41 205.41L1185.98 201.96zM1180.09 203.68 a6.6 6.6 0 1 0 13.2 0 a6.6 6.6 0 1 0 -13.2 0zM1033.43 237.68 a71.19 71.19 0 1 0 142.38 0 a71.19 71.19 0 1 0 -142.38 0z" fill="rgba(213, 9, 9, 1)"></path><path d="M1114.53 167.18 A70.1936 70.1936 0 0 1 1160.82 281.39M1160.82 281.39 A142.3872 142.3872 0 0 0 1114.53 167.18" fill="#aa0707" fill-rule="nonzero"></path><path d="M1067.81 255.79 a14.24 14.24 0 1 0 28.48 0 a14.24 14.24 0 1 0 -28.48 0zM1110.03 264.98 a8.54 8.54 0 1 0 17.08 0 a8.54 8.54 0 1 0 -17.08 0zM1119.09 204.43 a14.24 14.24 0 1 0 28.48 0 a14.24 14.24 0 1 0 -28.48 0zM1065.86 184.26 a9.97 9.97 0 1 0 19.94 0 a9.97 9.97 0 1 0 -19.94 0zM1101.11 172.66 a5.7 5.7 0 1 0 11.4 0 a5.7 5.7 0 1 0 -11.4 0zM1146.08 233.69 a5.7 5.7 0 1 0 11.4 0 a5.7 5.7 0 1 0 -11.4 0zM1060.07 290.09 a4.98 4.98 0 1 0 9.96 0 a4.98 4.98 0 1 0 -9.96 0zM1142.64 258.48 a4.98 4.98 0 1 0 9.96 0 a4.98 4.98 0 1 0 -9.96 0zM1119.18 293.22 a5.7 5.7 0 1 0 11.4 0 a5.7 5.7 0 1 0 -11.4 0zM1034.03 234.53 a11.39 11.39 0 1 0 22.78 0 a11.39 11.39 0 1 0 -22.78 0z" fill="#aa0707" fill-rule="nonzero"></path><path d="M435.82 376.77L435.82 380.03L461.21 380.03L461.21 376.77zM455.43 378.4 a5.78 5.78 0 1 0 11.56 0 a5.78 5.78 0 1 0 -11.56 0zM431.7 400.72L430.46 403.73L458.52 415.36L459.77 412.35zM453.37 413.85 a5.78 5.78 0 1 0 11.56 0 a5.78 5.78 0 1 0 -11.56 0zM418.73 421.28L416.43 423.58L433.86 441.01L436.16 438.71zM429.23 439.86 a5.78 5.78 0 1 0 11.56 0 a5.78 5.78 0 1 0 -11.56 0zM398.89 435.31L395.87 436.55L400.2 447L403.21 445.75zM395.93 446.38 a5.78 5.78 0 1 0 11.56 0 a5.78 5.78 0 1 0 -11.56 0zM375.18 440.67L371.92 440.67L371.92 455.37L375.18 455.37zM367.77 455.37 a5.78 5.78 0 1 0 11.56 0 a5.78 5.78 0 1 0 -11.56 0zM351.22 436.55L348.21 435.31L340.99 452.74L344 453.99zM336.72 453.36 a5.78 5.78 0 1 0 11.56 0 a5.78 5.78 0 1 0 -11.56 0zM330.67 423.58L328.36 421.28L320.13 429.51L322.44 431.81zM315.5 430.66 a5.78 5.78 0 1 0 11.56 0 a5.78 5.78 0 1 0 -11.56 0zM316.64 403.73L315.39 400.72L296.42 408.58L297.67 411.59zM291.27 410.08 a5.78 5.78 0 1 0 11.56 0 a5.78 5.78 0 1 0 -11.56 0zM311.27 380.03L311.27 376.77L295.89 376.77L295.89 380.03zM290.11 378.4 a5.78 5.78 0 1 0 11.56 0 a5.78 5.78 0 1 0 -11.56 0zM315.39 356.07L316.64 353.06L308.31 349.61L307.06 352.62zM301.9 351.11 a5.78 5.78 0 1 0 11.56 0 a5.78 5.78 0 1 0 -11.56 0zM328.36 335.52L330.67 333.21L315.94 318.48L313.63 320.79zM309.01 319.63 a5.78 5.78 0 1 0 11.56 0 a5.78 5.78 0 1 0 -11.56 0zM348.21 321.49L351.22 320.24L340.94 295.41L337.92 296.65zM333.65 296.03 a5.78 5.78 0 1 0 11.56 0 a5.78 5.78 0 1 0 -11.56 0zM371.92 316.12L375.18 316.12L375.18 289.04L371.92 289.04zM367.77 289.04 a5.78 5.78 0 1 0 11.56 0 a5.78 5.78 0 1 0 -11.56 0zM395.87 320.24L398.89 321.49L406.5 303.1L403.49 301.85zM399.21 302.48 a5.78 5.78 0 1 0 11.56 0 a5.78 5.78 0 1 0 -11.56 0zM416.43 333.21L418.73 335.52L428.49 325.76L426.19 323.45zM421.56 324.61 a5.78 5.78 0 1 0 11.56 0 a5.78 5.78 0 1 0 -11.56 0zM430.46 353.06L431.7 356.07L460.05 344.33L458.8 341.32zM453.65 342.83 a5.78 5.78 0 1 0 11.56 0 a5.78 5.78 0 1 0 -11.56 0zM311.26 378.4 a62.29 62.29 0 1 0 124.58 0 a62.29 62.29 0 1 0 -124.58 0z" fill="rgba(213, 9, 9, 1)"></path><path d="M421.8 339 A61.294399999999996 61.294399999999996 0 0 1 383.67 439.86M383.67 439.86 A124.58879999999999 124.58879999999999 0 0 0 421.8 339" fill="#aa0707" fill-rule="nonzero"></path><path d="M361.61 323.57 a6.85 6.85 0 1 0 13.7 0 a6.85 6.85 0 1 0 -13.7 0zM376.39 349.33 a12.46 12.46 0 1 0 24.92 0 a12.46 12.46 0 1 0 -24.92 0zM394.41 404.39 a12.46 12.46 0 1 0 24.92 0 a12.46 12.46 0 1 0 -24.92 0zM367.06 431.43 a8.72 8.72 0 1 0 17.44 0 a8.72 8.72 0 1 0 -17.44 0zM354.86 366.62 a6.85 6.85 0 1 0 13.7 0 a6.85 6.85 0 1 0 -13.7 0zM362.09 402.33 a8.1 8.1 0 1 0 16.2 0 a8.1 8.1 0 1 0 -16.2 0zM318.33 405.28 a7.48 7.48 0 1 0 14.96 0 a7.48 7.48 0 1 0 -14.96 0zM406.29 368.68 a2.49 2.49 0 1 0 4.98 0 a2.49 2.49 0 1 0 -4.98 0zM415.4 346.44 a4.98 4.98 0 1 0 9.96 0 a4.98 4.98 0 1 0 -9.96 0zM314.58 359.55 a3.74 3.74 0 1 0 7.48 0 a3.74 3.74 0 1 0 -7.48 0z" fill="#aa0707" fill-rule="nonzero"></path><path d="M1205.51 488.37L1205.51 490.24L1217.68 490.24L1217.68 488.37zM1214.38 489.3 a3.3 3.3 0 1 0 6.6 0 a3.3 3.3 0 1 0 -6.6 0zM1203.16 502.06L1202.45 503.78L1218.14 510.28L1218.85 508.56zM1215.19 509.42 a3.3 3.3 0 1 0 6.6 0 a3.3 3.3 0 1 0 -6.6 0zM1195.75 513.81L1194.43 515.12L1200.29 520.99L1201.61 519.67zM1197.65 520.33 a3.3 3.3 0 1 0 6.6 0 a3.3 3.3 0 1 0 -6.6 0zM1184.41 521.82L1182.69 522.54L1186.82 532.52L1188.54 531.81zM1184.38 532.17 a3.3 3.3 0 1 0 6.6 0 a3.3 3.3 0 1 0 -6.6 0zM1170.86 524.89L1169 524.89L1169 541.46L1170.86 541.46zM1166.63 541.46 a3.3 3.3 0 1 0 6.6 0 a3.3 3.3 0 1 0 -6.6 0zM1157.17 522.54L1155.45 521.82L1149.35 536.54L1151.08 537.25zM1146.91 536.9 a3.3 3.3 0 1 0 6.6 0 a3.3 3.3 0 1 0 -6.6 0zM1145.43 515.12L1144.11 513.81L1135.42 522.5L1136.73 523.82zM1132.78 523.16 a3.3 3.3 0 1 0 6.6 0 a3.3 3.3 0 1 0 -6.6 0zM1137.41 503.78L1136.7 502.06L1123.7 507.44L1124.41 509.17zM1120.75 508.31 a3.3 3.3 0 1 0 6.6 0 a3.3 3.3 0 1 0 -6.6 0zM1134.34 490.24L1134.34 488.37L1118.52 488.37L1118.52 490.24zM1115.22 489.3 a3.3 3.3 0 1 0 6.6 0 a3.3 3.3 0 1 0 -6.6 0zM1136.7 476.55L1137.41 474.83L1124.53 469.49L1123.82 471.21zM1120.87 470.35 a3.3 3.3 0 1 0 6.6 0 a3.3 3.3 0 1 0 -6.6 0zM1144.11 464.8L1145.43 463.48L1133.84 451.9L1132.52 453.22zM1129.88 452.56 a3.3 3.3 0 1 0 6.6 0 a3.3 3.3 0 1 0 -6.6 0zM1155.45 456.78L1157.17 456.07L1151.6 442.62L1149.88 443.33zM1147.44 442.98 a3.3 3.3 0 1 0 6.6 0 a3.3 3.3 0 1 0 -6.6 0zM1169 453.72L1170.86 453.72L1170.86 447.4L1169 447.4zM1166.63 447.4 a3.3 3.3 0 1 0 6.6 0 a3.3 3.3 0 1 0 -6.6 0zM1182.69 456.07L1184.41 456.78L1186.63 451.41L1184.91 450.69zM1182.47 451.05 a3.3 3.3 0 1 0 6.6 0 a3.3 3.3 0 1 0 -6.6 0zM1194.43 463.48L1195.75 464.8L1205.49 455.06L1204.18 453.74zM1201.53 454.4 a3.3 3.3 0 1 0 6.6 0 a3.3 3.3 0 1 0 -6.6 0zM1202.45 474.83L1203.16 476.55L1215.13 471.59L1214.42 469.87zM1211.48 470.73 a3.3 3.3 0 1 0 6.6 0 a3.3 3.3 0 1 0 -6.6 0zM1134.33 489.3 a35.6 35.6 0 1 0 71.2 0 a35.6 35.6 0 1 0 -71.2 0z" fill="#488fdb"></path><path d="M1169.66 524.9 A34.5968 34.5968 0 0 1 1139.2 471.33M1139.2 471.33 A71.1936 71.1936 0 0 0 1169.66 524.9" fill="#2672c3" fill-rule="nonzero"></path><path d="M1144.88 490.78 a7.12 7.12 0 1 0 14.24 0 a7.12 7.12 0 1 0 -14.24 0zM1157.51 510.25 a7.12 7.12 0 1 0 14.24 0 a7.12 7.12 0 1 0 -14.24 0zM1149.84 464.08 a7.12 7.12 0 1 0 14.24 0 a7.12 7.12 0 1 0 -14.24 0zM1172.94 487.34 a7.12 7.12 0 1 0 14.24 0 a7.12 7.12 0 1 0 -14.24 0zM1193.78 474.47 a3.92 3.92 0 1 0 7.84 0 a3.92 3.92 0 1 0 -7.84 0zM1177.73 520.16 a2.85 2.85 0 1 0 5.7 0 a2.85 2.85 0 1 0 -5.7 0zM1193.44 493.54 a3.92 3.92 0 1 0 7.84 0 a3.92 3.92 0 1 0 -7.84 0zM1140.59 503.02 a1.42 1.42 0 1 0 2.84 0 a1.42 1.42 0 1 0 -2.84 0zM1185.59 501.96 a1.78 1.78 0 1 0 3.56 0 a1.78 1.78 0 1 0 -3.56 0zM1176.25 469.93 a2.85 2.85 0 1 0 5.7 0 a2.85 2.85 0 1 0 -5.7 0z" fill="#2672c3" fill-rule="nonzero"></path><path d="M902.16 123.9L902.16 126.23L923.84 126.23L923.84 123.9zM919.71 125.07 a4.13 4.13 0 1 0 8.26 0 a4.13 4.13 0 1 0 -8.26 0zM899.22 141.01L898.33 143.17L906.31 146.47L907.2 144.32zM902.62 145.4 a4.13 4.13 0 1 0 8.26 0 a4.13 4.13 0 1 0 -8.26 0zM889.95 155.7L888.31 157.34L894.1 163.14L895.74 161.49zM890.79 162.31 a4.13 4.13 0 1 0 8.26 0 a4.13 4.13 0 1 0 -8.26 0zM875.77 165.72L873.62 166.61L880.39 182.95L882.54 182.06zM877.34 182.51 a4.13 4.13 0 1 0 8.26 0 a4.13 4.13 0 1 0 -8.26 0zM858.84 169.55L856.51 169.55L856.51 179.57L858.84 179.57zM853.55 179.57 a4.13 4.13 0 1 0 8.26 0 a4.13 4.13 0 1 0 -8.26 0zM841.73 166.61L839.58 165.72L835.48 175.6L837.64 176.49zM832.43 176.05 a4.13 4.13 0 1 0 8.26 0 a4.13 4.13 0 1 0 -8.26 0zM827.05 157.34L825.4 155.7L818.42 162.68L820.07 164.32zM815.11 163.5 a4.13 4.13 0 1 0 8.26 0 a4.13 4.13 0 1 0 -8.26 0zM817.03 143.17L816.14 141.01L808.64 144.12L809.53 146.27zM804.96 145.19 a4.13 4.13 0 1 0 8.26 0 a4.13 4.13 0 1 0 -8.26 0zM813.2 126.23L813.2 123.9L793.66 123.9L793.66 126.23zM789.53 125.07 a4.13 4.13 0 1 0 8.26 0 a4.13 4.13 0 1 0 -8.26 0zM816.14 109.12L817.03 106.97L798.57 99.32L797.68 101.48zM793.99 100.4 a4.13 4.13 0 1 0 8.26 0 a4.13 4.13 0 1 0 -8.26 0zM825.4 94.44L827.05 92.79L821.14 86.88L819.49 88.53zM816.18 87.7 a4.13 4.13 0 1 0 8.26 0 a4.13 4.13 0 1 0 -8.26 0zM839.58 84.42L841.73 83.53L837.2 72.59L835.05 73.48zM831.99 73.03 a4.13 4.13 0 1 0 8.26 0 a4.13 4.13 0 1 0 -8.26 0zM856.51 80.59L858.84 80.59L858.84 70.56L856.51 70.56zM853.55 70.56 a4.13 4.13 0 1 0 8.26 0 a4.13 4.13 0 1 0 -8.26 0zM873.62 83.53L875.77 84.42L884.05 64.45L881.9 63.55zM878.84 64 a4.13 4.13 0 1 0 8.26 0 a4.13 4.13 0 1 0 -8.26 0zM888.31 92.79L889.95 94.44L904.4 79.99L902.75 78.35zM899.45 79.17 a4.13 4.13 0 1 0 8.26 0 a4.13 4.13 0 1 0 -8.26 0zM898.33 106.97L899.22 109.12L914.62 102.74L913.73 100.59zM910.04 101.67 a4.13 4.13 0 1 0 8.26 0 a4.13 4.13 0 1 0 -8.26 0zM813.18 125.07 a44.5 44.5 0 1 0 89 0 a44.5 44.5 0 1 0 -89 0z" fill="#488fdb"></path><path d="M902.08 127.88 A43.496 43.496 0 0 1 833.12 162.17M833.12 162.17 A88.992 88.992 0 0 0 902.08 127.88" fill="#2672c3" fill-rule="nonzero"></path><path d="M846.97 143.91 a8.9 8.9 0 1 0 17.8 0 a8.9 8.9 0 1 0 -17.8 0zM820.13 103.06 a5.78 5.78 0 1 0 11.56 0 a5.78 5.78 0 1 0 -11.56 0zM869.05 130.46 a2.67 2.67 0 1 0 5.34 0 a2.67 2.67 0 1 0 -5.34 0zM819.55 142.64 a8.9 8.9 0 1 0 17.8 0 a8.9 8.9 0 1 0 -17.8 0zM840.36 98.59 a2.22 2.22 0 1 0 4.44 0 a2.22 2.22 0 1 0 -4.44 0zM876.48 113.37 a8.9 8.9 0 1 0 17.8 0 a8.9 8.9 0 1 0 -17.8 0zM857.8 165.9 a3.11 3.11 0 1 0 6.22 0 a3.11 3.11 0 1 0 -6.22 0zM872.29 152.28 a2.67 2.67 0 1 0 5.34 0 a2.67 2.67 0 1 0 -5.34 0zM884.15 137.26 a6.23 6.23 0 1 0 12.46 0 a6.23 6.23 0 1 0 -12.46 0zM865.78 96.56 a4.45 4.45 0 1 0 8.9 0 a4.45 4.45 0 1 0 -8.9 0z" fill="#2672c3" fill-rule="nonzero"></path><path d="M429.37 80.06L429.37 82.39L450.91 82.39L450.91 80.06zM446.78 81.23 a4.13 4.13 0 1 0 8.26 0 a4.13 4.13 0 1 0 -8.26 0zM426.43 97.17L425.54 99.32L438.96 104.88L439.86 102.73zM435.28 103.81 a4.13 4.13 0 1 0 8.26 0 a4.13 4.13 0 1 0 -8.26 0zM417.17 111.85L415.52 113.5L424.28 122.26L425.93 120.62zM420.97 121.44 a4.13 4.13 0 1 0 8.26 0 a4.13 4.13 0 1 0 -8.26 0zM402.99 121.87L400.84 122.77L403 127.99L405.16 127.1zM399.95 127.55 a4.13 4.13 0 1 0 8.26 0 a4.13 4.13 0 1 0 -8.26 0zM386.06 125.71L383.73 125.71L383.73 137.73L386.06 137.73zM380.76 137.73 a4.13 4.13 0 1 0 8.26 0 a4.13 4.13 0 1 0 -8.26 0zM368.95 122.77L366.79 121.87L358.74 141.32L360.89 142.21zM355.68 141.77 a4.13 4.13 0 1 0 8.26 0 a4.13 4.13 0 1 0 -8.26 0zM354.26 113.5L352.61 111.85L337.67 126.8L339.32 128.44zM334.37 127.62 a4.13 4.13 0 1 0 8.26 0 a4.13 4.13 0 1 0 -8.26 0zM344.24 99.32L343.35 97.17L333.53 101.24L334.42 103.39zM329.85 102.32 a4.13 4.13 0 1 0 8.26 0 a4.13 4.13 0 1 0 -8.26 0zM340.41 82.39L340.41 80.06L332.98 80.06L332.98 82.39zM328.85 81.23 a4.13 4.13 0 1 0 8.26 0 a4.13 4.13 0 1 0 -8.26 0zM343.35 65.28L344.24 63.13L329.8 57.15L328.91 59.3zM325.23 58.22 a4.13 4.13 0 1 0 8.26 0 a4.13 4.13 0 1 0 -8.26 0zM352.61 50.6L354.26 48.95L348.3 42.99L346.65 44.64zM343.35 43.81 a4.13 4.13 0 1 0 8.26 0 a4.13 4.13 0 1 0 -8.26 0zM366.79 40.58L368.95 39.68L362.96 25.23L360.8 26.12zM357.75 25.67 a4.13 4.13 0 1 0 8.26 0 a4.13 4.13 0 1 0 -8.26 0zM383.73 36.74L386.06 36.74L386.06 25.61L383.73 25.61zM380.76 25.61 a4.13 4.13 0 1 0 8.26 0 a4.13 4.13 0 1 0 -8.26 0zM400.84 39.68L402.99 40.58L409.32 25.29L407.17 24.39zM404.12 24.84 a4.13 4.13 0 1 0 8.26 0 a4.13 4.13 0 1 0 -8.26 0zM415.52 48.95L417.17 50.6L429.34 38.43L427.69 36.78zM424.38 37.6 a4.13 4.13 0 1 0 8.26 0 a4.13 4.13 0 1 0 -8.26 0zM425.54 63.13L426.43 65.28L445.38 57.43L444.49 55.28zM440.8 56.35 a4.13 4.13 0 1 0 8.26 0 a4.13 4.13 0 1 0 -8.26 0zM340.39 81.23 a44.5 44.5 0 1 0 89 0 a44.5 44.5 0 1 0 -89 0z" fill="#488fdb"></path><path d="M426.89 95.93 A43.496 43.496 0 0 1 351.22 110.31M351.22 110.31 A88.992 88.992 0 0 0 426.89 95.93" fill="#2672c3" fill-rule="nonzero"></path><path d="M375.94 65.01 a8.9 8.9 0 1 0 17.8 0 a8.9 8.9 0 1 0 -17.8 0zM401.49 73.29 a5.34 5.34 0 1 0 10.68 0 a5.34 5.34 0 1 0 -10.68 0zM373.23 121.39 a3.11 3.11 0 1 0 6.22 0 a3.11 3.11 0 1 0 -6.22 0zM403.41 55.46 a3.56 3.56 0 1 0 7.12 0 a3.56 3.56 0 1 0 -7.12 0zM358.03 46.98 a1.78 1.78 0 1 0 3.56 0 a1.78 1.78 0 1 0 -3.56 0zM351.56 92.98 a8.9 8.9 0 1 0 17.8 0 a8.9 8.9 0 1 0 -17.8 0zM388.24 123.27 a1.78 1.78 0 1 0 3.56 0 a1.78 1.78 0 1 0 -3.56 0zM378.43 93.39 a6.67 6.67 0 1 0 13.34 0 a6.67 6.67 0 1 0 -13.34 0zM361.53 112.53 a1.78 1.78 0 1 0 3.56 0 a1.78 1.78 0 1 0 -3.56 0zM422.9 76.7 a3.11 3.11 0 1 0 6.22 0 a3.11 3.11 0 1 0 -6.22 0z" fill="#2672c3" fill-rule="nonzero"></path><path d="M1371.84 142.61L1371.84 144.47L1388.05 144.47L1388.05 142.61zM1384.75 143.54 a3.3 3.3 0 1 0 6.6 0 a3.3 3.3 0 1 0 -6.6 0zM1369.48 156.29L1368.77 158.02L1385 164.74L1385.72 163.02zM1382.06 163.88 a3.3 3.3 0 1 0 6.6 0 a3.3 3.3 0 1 0 -6.6 0zM1362.07 168.04L1360.75 169.36L1367.18 175.79L1368.5 174.47zM1364.54 175.13 a3.3 3.3 0 1 0 6.6 0 a3.3 3.3 0 1 0 -6.6 0zM1350.73 176.06L1349.01 176.77L1352.74 185.77L1354.46 185.06zM1350.3 185.41 a3.3 3.3 0 1 0 6.6 0 a3.3 3.3 0 1 0 -6.6 0zM1337.18 179.12L1335.32 179.12L1335.32 190.15L1337.18 190.15zM1332.95 190.15 a3.3 3.3 0 1 0 6.6 0 a3.3 3.3 0 1 0 -6.6 0zM1323.49 176.77L1321.77 176.06L1318.1 184.92L1319.82 185.63zM1315.66 185.27 a3.3 3.3 0 1 0 6.6 0 a3.3 3.3 0 1 0 -6.6 0zM1311.75 169.36L1310.43 168.04L1301.91 176.56L1303.23 177.88zM1299.27 177.22 a3.3 3.3 0 1 0 6.6 0 a3.3 3.3 0 1 0 -6.6 0zM1303.73 158.02L1303.02 156.29L1288.58 162.28L1289.29 164zM1285.64 163.14 a3.3 3.3 0 1 0 6.6 0 a3.3 3.3 0 1 0 -6.6 0zM1300.67 144.47L1300.67 142.61L1287.58 142.61L1287.58 144.47zM1284.28 143.54 a3.3 3.3 0 1 0 6.6 0 a3.3 3.3 0 1 0 -6.6 0zM1303.02 130.78L1303.73 129.06L1299.21 127.18L1298.49 128.91zM1295.55 128.04 a3.3 3.3 0 1 0 6.6 0 a3.3 3.3 0 1 0 -6.6 0zM1310.43 119.03L1311.75 117.72L1299.35 105.31L1298.03 106.63zM1295.39 105.97 a3.3 3.3 0 1 0 6.6 0 a3.3 3.3 0 1 0 -6.6 0zM1321.77 111.02L1323.49 110.3L1321.05 104.39L1319.32 105.11zM1316.88 104.75 a3.3 3.3 0 1 0 6.6 0 a3.3 3.3 0 1 0 -6.6 0zM1335.32 107.95L1337.18 107.95L1337.18 95.79L1335.32 95.79zM1332.95 95.79 a3.3 3.3 0 1 0 6.6 0 a3.3 3.3 0 1 0 -6.6 0zM1349.01 110.3L1350.73 111.02L1356.31 97.54L1354.59 96.83zM1352.15 97.18 a3.3 3.3 0 1 0 6.6 0 a3.3 3.3 0 1 0 -6.6 0zM1360.75 117.72L1362.07 119.03L1370.6 110.51L1369.28 109.19zM1366.64 109.85 a3.3 3.3 0 1 0 6.6 0 a3.3 3.3 0 1 0 -6.6 0zM1368.77 129.06L1369.48 130.78L1373.81 128.99L1373.09 127.27zM1370.15 128.13 a3.3 3.3 0 1 0 6.6 0 a3.3 3.3 0 1 0 -6.6 0zM1300.65 143.54 a35.6 35.6 0 1 0 71.2 0 a35.6 35.6 0 1 0 -71.2 0z" fill="rgba(213, 9, 9, 1)"></path><path d="M1344.76 178.1 A34.5968 34.5968 0 0 1 1302.04 133.7M1302.04 133.7 A71.1936 71.1936 0 0 0 1344.76 178.1" fill="#aa0707" fill-rule="nonzero"></path><path d="M1318.89 172.6 a2.85 2.85 0 1 0 5.7 0 a2.85 2.85 0 1 0 -5.7 0zM1319.45 118.46 a7.12 7.12 0 1 0 14.24 0 a7.12 7.12 0 1 0 -14.24 0zM1350.59 158.27 a7.12 7.12 0 1 0 14.24 0 a7.12 7.12 0 1 0 -14.24 0zM1340.86 120.9 a1.42 1.42 0 1 0 2.84 0 a1.42 1.42 0 1 0 -2.84 0zM1330.09 165.12 a5.7 5.7 0 1 0 11.4 0 a5.7 5.7 0 1 0 -11.4 0zM1318.12 148.86 a6.76 6.76 0 1 0 13.52 0 a6.76 6.76 0 1 0 -13.52 0zM1338.55 144.98 a1.78 1.78 0 1 0 3.56 0 a1.78 1.78 0 1 0 -3.56 0zM1364.2 144.45 a1.78 1.78 0 1 0 3.56 0 a1.78 1.78 0 1 0 -3.56 0zM1301.12 140.17 a1.78 1.78 0 1 0 3.56 0 a1.78 1.78 0 1 0 -3.56 0zM1351.16 130.77 a6.76 6.76 0 1 0 13.52 0 a6.76 6.76 0 1 0 -13.52 0z" fill="#aa0707" fill-rule="nonzero"></path><path d="M213.84 183.45L213.84 186.71L226.06 186.71L226.06 183.45zM220.28 185.08 a5.78 5.78 0 1 0 11.56 0 a5.78 5.78 0 1 0 -11.56 0zM209.73 207.4L208.48 210.42L229.95 219.31L231.2 216.3zM224.79 217.8 a5.78 5.78 0 1 0 11.56 0 a5.78 5.78 0 1 0 -11.56 0zM196.76 227.96L194.45 230.26L207 242.81L209.3 240.5zM202.37 241.66 a5.78 5.78 0 1 0 11.56 0 a5.78 5.78 0 1 0 -11.56 0zM176.91 241.99L173.89 243.24L185.44 271.11L188.45 269.86zM181.17 270.48 a5.78 5.78 0 1 0 11.56 0 a5.78 5.78 0 1 0 -11.56 0zM153.2 247.35L149.94 247.35L149.94 258L153.2 258zM145.79 258 a5.78 5.78 0 1 0 11.56 0 a5.78 5.78 0 1 0 -11.56 0zM129.25 243.24L126.23 241.99L122.89 250.05L125.91 251.3zM118.62 250.68 a5.78 5.78 0 1 0 11.56 0 a5.78 5.78 0 1 0 -11.56 0zM108.69 230.26L106.38 227.96L98.24 236.1L100.54 238.41zM93.61 237.26 a5.78 5.78 0 1 0 11.56 0 a5.78 5.78 0 1 0 -11.56 0zM94.66 210.42L93.41 207.4L83.07 211.69L84.31 214.7zM77.91 213.2 a5.78 5.78 0 1 0 11.56 0 a5.78 5.78 0 1 0 -11.56 0zM89.3 186.71L89.3 183.45L64.74 183.45L64.74 186.71zM58.96 185.08 a5.78 5.78 0 1 0 11.56 0 a5.78 5.78 0 1 0 -11.56 0zM93.41 162.75L94.66 159.74L72.48 150.55L71.23 153.57zM66.08 152.06 a5.78 5.78 0 1 0 11.56 0 a5.78 5.78 0 1 0 -11.56 0zM106.38 142.2L108.69 139.89L87.49 118.69L85.18 121zM80.56 119.85 a5.78 5.78 0 1 0 11.56 0 a5.78 5.78 0 1 0 -11.56 0zM126.23 128.17L129.25 126.92L124.84 116.29L121.83 117.54zM117.55 116.91 a5.78 5.78 0 1 0 11.56 0 a5.78 5.78 0 1 0 -11.56 0zM149.94 122.81L153.2 122.81L153.2 92.43L149.94 92.43zM145.79 92.43 a5.78 5.78 0 1 0 11.56 0 a5.78 5.78 0 1 0 -11.56 0zM173.89 126.92L176.91 128.17L182.56 114.52L179.55 113.28zM175.27 113.9 a5.78 5.78 0 1 0 11.56 0 a5.78 5.78 0 1 0 -11.56 0zM194.45 139.89L196.76 142.2L207.55 131.4L205.25 129.09zM200.62 130.25 a5.78 5.78 0 1 0 11.56 0 a5.78 5.78 0 1 0 -11.56 0zM208.48 159.74L209.73 162.75L218.86 158.97L217.61 155.96zM212.45 157.47 a5.78 5.78 0 1 0 11.56 0 a5.78 5.78 0 1 0 -11.56 0zM89.28 185.08 a62.29 62.29 0 1 0 124.58 0 a62.29 62.29 0 1 0 -124.58 0z" fill="rgba(213, 9, 9, 1)"></path><path d="M182.24 130.85 A61.294399999999996 61.294399999999996 0 0 1 183.31 238.68M183.31 238.68 A124.58879999999999 124.58879999999999 0 0 0 182.24 130.85" fill="#aa0707" fill-rule="nonzero"></path><path d="M189.75 165.47 a9.97 9.97 0 1 0 19.94 0 a9.97 9.97 0 1 0 -19.94 0zM159.86 215.25 a12.46 12.46 0 1 0 24.92 0 a12.46 12.46 0 1 0 -24.92 0zM145.86 175.06 a12.46 12.46 0 1 0 24.92 0 a12.46 12.46 0 1 0 -24.92 0zM97.79 213.37 a8.1 8.1 0 1 0 16.2 0 a8.1 8.1 0 1 0 -16.2 0zM156.67 243.37 a3.11 3.11 0 1 0 6.22 0 a3.11 3.11 0 1 0 -6.22 0zM132.19 136.69 a12.46 12.46 0 1 0 24.92 0 a12.46 12.46 0 1 0 -24.92 0zM123.91 229.33 a11.84 11.84 0 1 0 23.68 0 a11.84 11.84 0 1 0 -23.68 0zM139.7 202.16 a3.74 3.74 0 1 0 7.48 0 a3.74 3.74 0 1 0 -7.48 0zM113.15 190.92 a4.98 4.98 0 1 0 9.96 0 a4.98 4.98 0 1 0 -9.96 0zM197.43 205.76 a6.23 6.23 0 1 0 12.46 0 a6.23 6.23 0 1 0 -12.46 0z" fill="#aa0707" fill-rule="nonzero"></path></g><defs><mask id="SvgjsMask1002"><rect width="1440" height="560" fill="#ffffff"></rect></mask></defs></svg>